<svg width="62" height="25" viewBox="0 0 62 25" fill="none" xmlns="http://www.w3.org/2000/svg">
<path d="M59 0.5L56.1132 5.5H61.8868L59 0.5ZM0.5 24.5H1.05729V23.5H0.5V24.5ZM2.17188 24.5H3.28646V23.5H2.17188V24.5ZM4.40104 24.5H5.51563V23.5H4.40104V24.5ZM6.63021 24.5H7.74479V23.5H6.63021V24.5ZM8.85938 24.5H9.97396V23.5H8.85938V24.5ZM11.0885 24.5H12.2031V23.5H11.0885V24.5ZM13.3177 24.5H14.4323V23.5H13.3177V24.5ZM15.5469 24.5H16.6615V23.5H15.5469V24.5ZM17.776 24.5H18.8906V23.5H17.776V24.5ZM20.0052 24.5H21.1198V23.5H20.0052V24.5ZM22.2344 24.5H23.349V23.5H22.2344V24.5ZM24.4635 24.5H25.5781V23.5H24.4635V24.5ZM26.6927 24.5H27.8073V23.5H26.6927V24.5ZM28.9219 24.5H30.0365V23.5H28.9219V24.5ZM31.151 24.5H32.2656V23.5H31.151V24.5ZM33.3802 24.5H34.4948V23.5H33.3802V24.5ZM35.6094 24.5H36.724V23.5H35.6094V24.5ZM37.8385 24.5H38.9531V23.5H37.8385V24.5ZM40.0677 24.5H41.1823V23.5H40.0677V24.5ZM42.2969 24.5H43.4115V23.5H42.2969V24.5ZM44.526 24.5H45.6406V23.5H44.526V24.5ZM46.7552 24.5H47.8698V23.5H46.7552V24.5ZM48.9844 24.5H50.0989V23.5H48.9844V24.5ZM51.2135 24.5H52.3281V23.5H51.2135V24.5ZM53.4427 24.5H54V23.5H53.4427V24.5ZM54 24.5C54.1816 24.5 54.3613 24.4912 54.5387 24.4739L54.4418 23.4786C54.2966 23.4928 54.1492 23.5 54 23.5V24.5ZM55.5969 24.2645C55.945 24.159 56.2785 24.02 56.5935 23.8513L56.1213 22.9697C55.8637 23.1077 55.5913 23.2213 55.3069 23.3074L55.5969 24.2645ZM57.4894 23.2515C57.7676 23.023 58.023 22.7676 58.2515 22.4894L57.4789 21.8546C57.2916 22.0825 57.0825 22.2916 56.8546 22.4789L57.4894 23.2515ZM58.8513 21.5935C59.02 21.2785 59.159 20.945 59.2645 20.5969L58.3074 20.3069C58.2213 20.5913 58.1077 20.8637 57.9697 21.1213L58.8513 21.5935ZM59.4739 19.5387C59.4912 19.3613 59.5 19.1816 59.5 19H58.5C58.5 19.1492 58.4928 19.2966 58.4786 19.4418L59.4739 19.5387ZM59.5 19V18.4219H58.5V19H59.5ZM59.5 17.2656V16.1094H58.5V17.2656H59.5ZM59.5 14.9531V13.7969H58.5V14.9531H59.5ZM59.5 12.6406V11.4844H58.5V12.6406H59.5ZM59.5 10.3281V9.17188H58.5V10.3281H59.5ZM59.5 8.01562V6.85938H58.5V8.01562H59.5ZM59.5 5.70312V4.54688H58.5V5.70312H59.5ZM59.5 3.39062V2.23438H58.5V3.39062H59.5Z" fill="#E01E5A"/>
</svg>
